<?xml version="1.0" encoding="utf-8"?>
<!-- Generator: Adobe Illustrator 28.7.1, SVG Export Plug-In . SVG Version: 9.03 Build 54978)  -->
<svg version="1.2" baseProfile="tiny" id="Calque_1"
	 xmlns="http://www.w3.org/2000/svg" xmlns:xlink="http://www.w3.org/1999/xlink" x="0px" y="0px" viewBox="0 0 1000 1000"
	 overflow="visible" xml:space="preserve">
<polygon fill="#F6F6F6" points="390,133.3 390,243.3 353.3,243.3 353.3,390 316.7,390 316.7,463.3 206.7,463.3 206.7,426.7 
	170,426.7 170,280 133.3,280 133.3,133.3 206.7,133.3 206.7,206.7 243.3,206.7 243.3,316.7 280,316.7 280,206.7 316.7,206.7 
	316.7,133.3 "/>
<polygon fill="#F6F6F6" points="500,573.3 426.7,573.3 426.7,793.3 390,793.3 390,573.3 316.7,573.3 316.7,866.7 353.3,866.7 
	353.3,903.3 463.3,903.3 463.3,866.7 500,866.7 "/>
<g>
	<polygon fill="#E43916" points="426.7,206.7 390,206.7 390,170 353.3,170 353.3,206.7 353.3,243.3 353.3,280 353.3,316.7 
		316.7,316.7 316.7,353.3 316.7,390 316.7,426.7 316.7,463.3 316.7,500 316.7,536.7 280,536.7 280,573.3 280,610 280,646.7 
		280,683.3 280,720 280,756.7 243.3,756.7 243.3,793.3 243.3,830 280,830 280,793.3 316.7,793.3 316.7,756.7 316.7,720 353.3,720 
		353.3,683.3 353.3,646.7 390,646.7 390,610 426.7,610 426.7,573.3 426.7,536.7 426.7,500 426.7,463.3 426.7,426.7 426.7,390 
		426.7,353.3 426.7,316.7 463.3,316.7 463.3,280 463.3,243.3 463.3,206.7 463.3,170 426.7,170 	"/>
	<rect x="463.3" y="133.3" fill="#E43916" width="36.7" height="36.7"/>
</g>
<path fill="#F6F6F6" d="M280,500v-36.7h-73.3v-36.7h-73.3H60v330h73.3h73.3V720H280v-36.7h36.7V500H280z M206.7,646.7h-73.3v-110
	h73.3V646.7z"/>
<g>
	<polygon fill="#E43916" points="573.3,866.7 610,866.7 610,903.3 463.3,903.3 463.3,940 426.7,940 426.7,866.7 463.3,866.7 
		463.3,830 536.7,830 536.7,793.3 573.3,793.3 	"/>
	<polygon fill="#E43916" points="940,573.3 940,610 903.3,610 903.3,683.3 866.7,683.3 866.7,756.7 830,756.7 830,793.3 
		756.7,793.3 756.7,830 720,830 720,866.7 683.3,866.7 683.3,793.3 720,793.3 720,720 756.7,720 756.7,610 793.3,610 793.3,573.3 
		830,573.3 830,610 866.7,610 866.7,573.3 	"/>
	<rect x="830" y="500" fill="#E43916" width="36.7" height="36.7"/>
	<rect x="756.7" y="536.7" fill="#E43916" width="36.7" height="36.7"/>
</g>
<path fill="#F6F6F6" d="M683.3,316.7v-73.3h-36.7v-36.7H500v36.7h-73.3V280H390v183.3h36.7V500h36.7v36.7H610V500h73.3v-73.3H720
	v-110H683.3z M500,426.7v-110h110v110H500z"/>
<rect x="756.7" y="316.7" fill="#63B232" width="36.7" height="36.7"/>
<polygon fill="#F6F6F6" points="756.7,536.7 756.7,720 720,720 720,793.3 683.3,793.3 683.3,866.7 573.3,866.7 573.3,756.7 
	536.7,756.7 536.7,646.7 573.3,646.7 573.3,720 610,720 610,756.7 646.7,756.7 646.7,646.7 683.3,646.7 683.3,536.7 "/>
<path fill="#63B232" d="M756.7,390v-36.7H720v-36.7h-73.3v36.7H610V390h-36.7v36.7h-36.7v220h36.7V720H610v36.7h36.7v-110h36.7v-110
	h73.3V500h36.7V390H756.7z M720,426.7h-36.7v36.7h-36.7v73.3H610v-73.3h36.7v-36.7h36.7V390H720V426.7z"/>
<rect x="866.7" y="536.7" fill="#63B232" width="36.7" height="36.7"/>
<rect x="793.3" y="536.7" fill="#63B232" width="36.7" height="36.7"/>
<rect x="830" y="573.3" fill="#63B232" width="36.7" height="36.7"/>
<rect x="463.3" y="170" fill="#63B232" width="36.7" height="36.7"/>
<rect x="390" y="170" fill="#63B232" width="36.7" height="36.7"/>
<rect x="390" y="133.3" fill="#63B232" width="36.7" height="36.7"/>
<polygon fill="#63B232" points="866.7,426.7 866.7,390 866.7,353.3 866.7,316.7 866.7,280 830,280 830,243.3 830,206.7 830,170 
	793.3,170 793.3,133.3 756.7,133.3 756.7,96.7 720,96.7 683.3,96.7 646.7,96.7 610,96.7 610,60 573.3,60 536.7,60 500,60 500,96.7 
	463.3,96.7 426.7,96.7 426.7,133.3 463.3,133.3 500,133.3 500,170 536.7,170 536.7,133.3 573.3,133.3 610,133.3 646.7,133.3 
	683.3,133.3 720,133.3 720,170 756.7,170 756.7,206.7 756.7,243.3 756.7,280 793.3,280 793.3,316.7 793.3,353.3 793.3,390 830,390 
	830,426.7 830,463.3 830,500 866.7,500 866.7,463.3 903.3,463.3 903.3,426.7 "/>
</svg>
